<svg width="60" height="60" viewBox="0 0 60 60" fill="none" xmlns="http://www.w3.org/2000/svg">
<g id="Vector">
<path d="M30 60C46.5685 60 60 46.5685 60 30C60 13.4315 46.5685 0 30 0C13.4315 0 0 13.4315 0 30C0 46.5685 13.4315 60 30 60Z" fill="#8E69F8"/>
<path d="M45.6732 26.752C45.5787 29.2913 44.6929 31.2756 43.6063 31.2756C42.5315 31.2756 41.6457 29.2913 41.5512 26.752C42.1772 26.5748 42.874 26.4685 43.6063 26.4685C44.3504 26.4685 45.0472 26.5748 45.6732 26.752Z" fill="white"/>
<path d="M18.4488 26.752C18.3543 29.2913 17.4685 31.2756 16.3819 31.2756C15.3071 31.2756 14.4213 29.2913 14.3268 26.752C14.9528 26.5748 15.6496 26.4685 16.3819 26.4685C17.126 26.4685 17.8346 26.5748 18.4488 26.752Z" fill="white"/>
<path d="M30.8504 18.8858L31.1811 31.2992L50.0433 34.0512V31.4764L30.8504 18.8858Z" fill="#E6E9EE"/>
<path d="M29.1496 18.8858L28.8189 31.2992L9.95669 34.0512V31.4764L29.1496 18.8858Z" fill="#E6E9EE"/>
<path d="M30.4016 40.5945L30.5551 46.4173L39.3898 47.7047V46.5L30.4016 40.5945Z" fill="#E6E9EE"/>
<path d="M29.5984 40.5945L29.4449 46.4173L20.6102 47.7047V46.5L29.5984 40.5945Z" fill="#E6E9EE"/>
<path d="M34.0039 22.0394C34.0039 33.0591 32.2087 49.9488 30 49.9488C27.7913 49.9488 25.9961 33.0591 25.9961 22.0394C25.9961 11.0197 30 10.063 30 10.063C30 10.063 34.0039 11.0197 34.0039 22.0394Z" fill="white"/>
<path d="M32.7638 17.4094C31.9843 17.0315 31.0276 16.8071 30 16.8071C28.9724 16.8071 28.0157 17.0315 27.2362 17.3976C27.6378 16.1102 28.7244 15.2008 30 15.2008C31.2756 15.2008 32.3622 16.1339 32.7638 17.4094Z" fill="#FFD256"/>
<path d="M48.1417 13.3819C48.6024 12.3307 48.1299 11.1024 47.0787 10.6417C46.5 10.3819 45.8622 10.4173 45.3307 10.6772C45.1299 10.4055 44.8465 10.1929 44.5276 10.0394C43.4764 9.57874 42.248 10.0512 41.7874 11.1024C41.7638 11.1614 41.7402 11.2205 41.7165 11.2795C41.6457 11.2323 41.563 11.185 41.4803 11.1496C40.4291 10.689 39.2008 11.1614 38.7402 12.2126C38.2795 13.2638 38.752 14.4921 39.8032 14.9528C39.8976 15 40.0039 15.0354 40.1102 15.0591C40.2165 15.7441 40.6535 16.3583 41.3268 16.6654C42.1181 17.0079 43.0039 16.8307 43.5945 16.2756C43.7717 16.4646 43.9961 16.6181 44.2441 16.7244C45.2953 17.185 46.5236 16.7126 46.9843 15.6614C47.1614 15.2598 47.1968 14.8228 47.126 14.4213C47.5512 14.2323 47.9291 13.8661 48.1417 13.3819Z" fill="white"/>
<path d="M17.4331 42.2835C17.8937 41.2323 17.4213 40.0039 16.3701 39.5433C15.7913 39.2835 15.1535 39.3189 14.622 39.5787C14.4213 39.3071 14.1378 39.0945 13.8189 38.9409C12.7677 38.4803 11.5394 38.9528 11.0787 40.0039C11.0551 40.063 11.0315 40.1221 11.0079 40.1811C10.937 40.1339 10.8543 40.0866 10.7717 40.0512C9.72047 39.5906 8.49213 40.063 8.0315 41.1142C7.57087 42.1654 8.04331 43.3937 9.09449 43.8543C9.18898 43.9016 9.29528 43.937 9.40158 43.9606C9.50787 44.6457 9.94488 45.2598 10.6181 45.5669C11.4094 45.9095 12.2953 45.7323 12.8858 45.1772C13.063 45.3661 13.2874 45.5197 13.5354 45.626C14.5866 46.0866 15.815 45.6142 16.2756 44.563C16.4528 44.1614 16.4882 43.7244 16.4173 43.3228C16.8425 43.1339 17.2205 42.7677 17.4331 42.2835Z" fill="white"/>
</g>
</svg>
