<svg width="148" height="97" viewBox="0 0 148 97" fill="none" xmlns="http://www.w3.org/2000/svg">
<path d="M146.466 3.5C147.294 3.5 147.966 2.82843 147.966 2C147.966 1.17158 147.294 0.500001 146.466 0.5V3.5ZM126.326 88.2287C127.005 87.7536 127.17 86.8183 126.695 86.1396L118.951 75.081C118.476 74.4024 117.541 74.2375 116.862 74.7127C116.184 75.1878 116.019 76.1232 116.494 76.8018L123.377 86.6316L113.547 93.5145C112.868 93.9897 112.703 94.925 113.179 95.6036C113.654 96.2822 114.589 96.4471 115.268 95.972L126.326 88.2287ZM115.24 83.6221C114.425 83.4703 113.642 84.0074 113.49 84.8218C113.339 85.6363 113.876 86.4195 114.69 86.5713L115.24 83.6221ZM94.2233 82.523C95.034 82.6935 95.8294 82.1746 95.9999 81.3639C96.1705 80.5532 95.6515 79.7578 94.8408 79.5872L94.2233 82.523ZM74.6377 75.0272C73.8327 74.8315 73.0216 75.3255 72.826 76.1305C72.6304 76.9355 73.1244 77.7467 73.9294 77.9423L74.6377 75.0272ZM53.7128 72.5731C54.508 72.8053 55.3409 72.3489 55.5731 71.5537C55.8053 70.7585 55.3489 69.9256 54.5537 69.6934L53.7128 72.5731ZM34.9722 63.2372C34.1971 62.9448 33.3317 63.3361 33.0393 64.1112C32.7469 64.8864 33.1382 65.7517 33.9133 66.0441L34.9722 63.2372ZM14.6845 57.1372C15.3965 57.5609 16.317 57.3271 16.7406 56.6152C17.1642 55.9033 16.9305 54.9827 16.2186 54.5591L14.6845 57.1372ZM3.54778 40.6941C3.45752 39.8706 2.71678 39.2762 1.89328 39.3665C1.06979 39.4567 0.475382 40.1975 0.565642 41.021L3.54778 40.6941ZM13.2354 23.9216C12.5201 24.3394 12.2789 25.258 12.6967 25.9734C13.1146 26.6887 14.0332 26.9299 14.7485 26.5121L13.2354 23.9216ZM33.606 18.4436C34.3931 18.1851 34.8215 17.3375 34.5629 16.5504C34.3044 15.7634 33.4568 15.3349 32.6697 15.5935L33.606 18.4436ZM52.9818 10.0773C52.1736 10.2594 51.6661 11.0621 51.8481 11.8703C52.0302 12.6785 52.8329 13.1861 53.6411 13.004L52.9818 10.0773ZM74.0042 9.1152C74.8222 8.98399 75.3789 8.21452 75.2477 7.39655C75.1164 6.57858 74.347 6.02186 73.529 6.15308L74.0042 9.1152ZM94.2702 3.36404C93.4468 3.45469 92.8527 4.19571 92.9434 5.01916C93.034 5.84262 93.775 6.43667 94.5985 6.34602L94.2702 3.36404ZM115.311 4.53197C116.137 4.4777 116.763 3.76358 116.709 2.93694C116.655 2.11029 115.941 1.48415 115.114 1.53841L115.311 4.53197ZM136.011 0.617677C135.182 0.636202 134.526 1.32262 134.545 2.15084C134.563 2.97906 135.25 3.63545 136.078 3.61693L136.011 0.617677ZM125.726 85.5228C122.141 84.8906 118.646 84.2569 115.24 83.6221L114.69 86.5713C118.106 87.208 121.611 87.8434 125.205 88.4772L125.726 85.5228ZM94.8408 79.5872C87.6298 78.0704 80.9022 76.5494 74.6377 75.0272L73.9294 77.9423C80.2269 79.4726 86.985 81.0004 94.2233 82.523L94.8408 79.5872ZM54.5537 69.6934C47.1529 67.5323 40.6455 65.3773 34.9722 63.2372L33.9133 66.0441C39.6712 68.2161 46.2529 70.3948 53.7128 72.5731L54.5537 69.6934ZM16.2186 54.5591C7.61248 49.4383 3.99054 44.7336 3.54778 40.6941L0.565642 41.021C1.17242 46.557 5.92405 51.9245 14.6845 57.1372L16.2186 54.5591ZM14.7485 26.5121C19.6845 23.6289 26.0684 20.9198 33.606 18.4436L32.6697 15.5935C25.0125 18.1089 18.4154 20.8959 13.2354 23.9216L14.7485 26.5121ZM53.6411 13.004C60.0452 11.5613 66.8704 10.2596 74.0042 9.1152L73.529 6.15308C66.3403 7.30628 59.4533 8.61951 52.9818 10.0773L53.6411 13.004ZM94.5985 6.34602C101.37 5.60057 108.301 4.99212 115.311 4.53197L115.114 1.53841C108.061 2.0014 101.087 2.61368 94.2702 3.36404L94.5985 6.34602ZM136.078 3.61693C139.544 3.5394 143.01 3.49999 146.466 3.5V0.5C142.987 0.499994 139.499 0.539663 136.011 0.617677L136.078 3.61693Z" fill="#FFD256"/>
</svg>
