<svg width="24" height="21" viewBox="0 0 24 21" fill="none" xmlns="http://www.w3.org/2000/svg">
<path id="Vector" d="M6.88036 18.4387C6.57627 19.6632 8.09671 20.5815 9.00898 19.5608L14.991 13.0288L20.8714 12.7237C22.0877 12.6213 23 11.7019 23 10.4774C23 9.25292 22.0877 8.33455 20.8714 8.23218L14.991 7.92605L9.008 1.39406C8.09573 0.475683 6.57529 1.29169 6.87938 2.51619L8.29813 8.12981C7.37413 8.16623 5.82631 8.5698 4.95316 8.12981L2.52044 6.9053C2.21733 6.70155 1.81058 6.80293 1.50649 6.9053C1.20338 7.10906 1 7.41617 1 7.82368C1 8.50385 1.48009 9.10626 1.81156 9.66142C2.11467 10.1713 2.11467 10.7836 1.81156 11.2944C1.45467 11.8919 1 12.4146 1 13.1312C1 13.5397 1.2024 13.8458 1.50649 14.0495C1.65696 14.1494 1.83323 14.2026 2.01347 14.2026C2.1937 14.2026 2.36997 14.1494 2.52044 14.0495L4.95413 12.825C5.83413 12.3821 7.3448 12.7876 8.29911 12.825L6.88036 18.4387Z" stroke="black" stroke-width="2" stroke-miterlimit="10" stroke-linecap="round" stroke-linejoin="round"/>
</svg>
