<svg width="23" height="24" viewBox="0 0 23 24" fill="none" xmlns="http://www.w3.org/2000/svg">
<path id="Vector" d="M3.73913 17.0217C4.09884 17.0217 4.45502 17.0926 4.78735 17.2302C5.11968 17.3679 5.42164 17.5697 5.67599 17.824C5.93034 18.0784 6.1321 18.3803 6.26976 18.7127C6.40741 19.045 6.47826 19.4012 6.47826 19.7609C6.47826 20.1206 6.40741 20.4768 6.26976 20.8091C6.1321 21.1414 5.93034 21.4434 5.67599 21.6977C5.42164 21.9521 5.11968 22.1538 4.78735 22.2915C4.45502 22.4292 4.09884 22.5 3.73913 22.5C3.37942 22.5 3.02324 22.4292 2.69091 22.2915C2.35858 22.1538 2.05662 21.9521 1.80227 21.6977C1.54792 21.4434 1.34616 21.1414 1.2085 20.8091C1.07085 20.4768 1 20.1206 1 19.7609C1 19.4012 1.07085 19.045 1.2085 18.7127C1.34616 18.3803 1.54792 18.0784 1.80227 17.824C2.05662 17.5697 2.35858 17.3679 2.69091 17.2302C3.02324 17.0926 3.37942 17.0217 3.73913 17.0217ZM3.73913 17.0217V12.9541C3.73937 12.7066 3.83789 12.4692 4.01303 12.2942C4.18817 12.1193 4.42561 12.021 4.67317 12.021H18.3268C18.5745 12.021 18.8121 11.9226 18.9873 11.7474C19.1625 11.5722 19.2609 11.3347 19.2609 11.0869V7.10242M16.5217 4.23913C16.5217 4.96559 16.8103 5.6623 17.324 6.17599C17.8377 6.68967 18.5344 6.97826 19.2609 6.97826C19.9873 6.97826 20.684 6.68967 21.1977 6.17599C21.7114 5.6623 22 4.96559 22 4.23913C22 3.51267 21.7114 2.81596 21.1977 2.30227C20.684 1.78859 19.9873 1.5 19.2609 1.5C18.5344 1.5 17.8377 1.78859 17.324 2.30227C16.8103 2.81596 16.5217 3.51267 16.5217 4.23913Z" stroke="white" stroke-width="1.5" stroke-linecap="round" stroke-linejoin="round"/>
</svg>
