<svg width="70" height="36" viewBox="0 0 70 36" fill="none" xmlns="http://www.w3.org/2000/svg">
<g id="Group 19">
<g id="Group 16">
<path id="Rectangle 29" d="M66 4H50.4667C46.3429 4 43 7.34294 43 11.4667V11.4667V17.0667V18.9333V20.8V24.5333V24.5333C43 28.6571 46.3429 32 50.4667 32H66" stroke="#FFD256" stroke-width="7" stroke-linecap="round"/>
<rect id="Rectangle 27" width="24" height="8" rx="4" transform="matrix(-1 0 0 1 55 14)" fill="#FFD256"/>
</g>
<g id="Group 17">
<path id="Rectangle 29_2" d="M4 4H19.5333C23.6571 4 27 7.34294 27 11.4667V11.4667V17.0667V18.9333V20.8V24.5333V24.5333C27 28.6571 23.6571 32 19.5333 32H4" stroke="#FFD256" stroke-width="7" stroke-linecap="round"/>
<rect id="Rectangle 27_2" x="15" y="14" width="24" height="8" rx="4" fill="#FFD256"/>
</g>
</g>
</svg>
